<?xml version="1.0" encoding="UTF-8"?>
<svg version="1.1" xmlns="http://www.w3.org/2000/svg" width="1080" height="1080">
<path d="M0 0 C356.4 0 712.8 0 1080 0 C1080 356.4 1080 712.8 1080 1080 C723.6 1080 367.2 1080 0 1080 C0 723.6 0 367.2 0 0 Z " fill="#3D3E65" transform="translate(0,0)"/>
<path d="M0 0 C1.09452484 -0.00095673 2.18904968 -0.00191345 3.31674194 -0.00289917 C5.61757465 -0.00357484 7.91840932 -0.00176368 10.21923828 0.00244141 C13.68136033 0.007767 17.14335082 0.00249141 20.60546875 -0.00390625 C38.48266029 -0.01152168 55.91057692 0.44591591 73.5859375 3.3203125 C74.60708649 3.48462265 74.60708649 3.48462265 75.64886475 3.6522522 C122.02436405 11.15596774 167.42256681 26.28217822 205.0859375 55.1328125 C205.93800781 55.78507812 206.79007813 56.43734375 207.66796875 57.109375 C210.17569423 59.07828386 212.63659476 61.09169355 215.0859375 63.1328125 C215.8903125 63.80183594 215.8903125 63.80183594 216.7109375 64.484375 C227.3377879 73.35589743 237.21835435 82.50450644 245.875 93.36328125 C247.32370554 95.17800251 248.79707738 96.97336476 250.296875 98.74609375 C260.51764858 110.84964141 268.63348238 124.19459607 276.0859375 138.1328125 C276.42334961 138.75704102 276.76076172 139.38126953 277.10839844 140.02441406 C290.02485633 164.10573214 299.28918626 191.04015776 303.0859375 218.1328125 C303.28678955 219.51799072 303.28678955 219.51799072 303.49169922 220.93115234 C309.90090456 266.53095416 305.91207233 310.97472232 277.71875 348.72265625 C263.60234344 367.18784377 247.15737468 381.4737136 228.29296875 394.8515625 C225.49762732 396.83996615 222.71008465 398.83107584 219.9609375 400.8828125 C219.29835938 401.37265625 218.63578125 401.8625 217.953125 402.3671875 C212.24430099 407.7654897 210.71676135 413.97621437 208.7734375 421.3828125 C208.32133911 423.05089966 208.32133911 423.05089966 207.86010742 424.75268555 C206.92526981 428.21010084 206.00499206 431.67117309 205.0859375 435.1328125 C204.55839802 437.09274604 204.02979857 439.05239467 203.5 441.01171875 C202.39266727 445.11079254 201.29078507 449.21128627 200.19140625 453.3125 C197.66223004 462.72701054 195.10034639 472.13262319 192.53720093 481.53793335 C191.98773591 483.5544649 191.43860092 485.57108641 190.88980103 487.58779907 C190.11490189 490.43507212 189.33886652 493.28203302 188.5625 496.12890625 C188.32739212 496.99335358 188.09228424 497.8578009 187.85005188 498.7484436 C187.63221542 499.5461618 187.41437897 500.34388 187.18994141 501.16577148 C187.00009674 501.8623436 186.81025208 502.55891571 186.61465454 503.27659607 C186.14976463 504.90872863 185.62259189 506.52284934 185.0859375 508.1328125 C181.53441262 506.54507196 178.70511668 504.40282009 175.6484375 502.0078125 C174.47940389 501.10125651 173.31011497 500.19502969 172.140625 499.2890625 C170.02936928 497.64732642 167.92011902 496.00312207 165.81347656 494.35546875 C148.02520658 480.47123692 129.62033615 467.80137883 110.1484375 456.3828125 C109.17221436 455.81030762 108.19599121 455.23780273 107.19018555 454.64794922 C96.63274105 447.92181222 96.63274105 447.92181222 84.7109375 446.2578125 C83.18146484 446.44730469 83.18146484 446.44730469 81.62109375 446.640625 C80.45449219 446.80304688 79.28789063 446.96546875 78.0859375 447.1328125 C68.54737334 448.27046021 59.01175514 449.23602427 49.4140625 449.6796875 C48.51528885 449.72132019 47.6165152 449.76295288 46.69050598 449.80584717 C7.0139478 451.51416867 -31.47299971 449.34922111 -70.578125 442.53515625 C-71.85123535 442.31335693 -73.1243457 442.09155762 -74.43603516 441.86303711 C-77.71370646 441.17487799 -80.75670455 440.23721939 -83.9140625 439.1328125 C-85.80488313 438.73330481 -87.70145412 438.36051236 -89.6015625 438.0078125 C-132.23462269 428.97121422 -175.13327954 411.03777396 -208.9140625 383.1328125 C-209.77789551 382.42125 -209.77789551 382.42125 -210.65917969 381.6953125 C-243.2511049 354.67901615 -266.24425682 319.45945446 -270.72216797 276.67504883 C-275.09278992 218.77264885 -258.16716682 157.0902502 -223.9140625 110.1328125 C-223.32359131 109.31925293 -223.32359131 109.31925293 -222.72119141 108.48925781 C-217.8468968 101.83469937 -212.61052785 95.50466722 -207.2265625 89.2578125 C-206.70408936 88.65130859 -206.18161621 88.04480469 -205.64331055 87.41992188 C-199.54503225 80.43512662 -192.94790775 74.16182272 -185.9140625 68.1328125 C-184.56248047 66.93011719 -184.56248047 66.93011719 -183.18359375 65.703125 C-134.26093629 22.60307623 -64.74059361 -0.12860209 0 0 Z " fill="#3D3E5D" transform="translate(522.9140625,309.8671875)"/>
<path d="M0 0 C1.09452484 -0.00095673 2.18904968 -0.00191345 3.31674194 -0.00289917 C5.61757465 -0.00357484 7.91840932 -0.00176368 10.21923828 0.00244141 C13.68136033 0.007767 17.14335082 0.00249141 20.60546875 -0.00390625 C38.48266029 -0.01152168 55.91057692 0.44591591 73.5859375 3.3203125 C74.60708649 3.48462265 74.60708649 3.48462265 75.64886475 3.6522522 C122.02436405 11.15596774 167.42256681 26.28217822 205.0859375 55.1328125 C205.93800781 55.78507812 206.79007813 56.43734375 207.66796875 57.109375 C210.17569423 59.07828386 212.63659476 61.09169355 215.0859375 63.1328125 C215.8903125 63.80183594 215.8903125 63.80183594 216.7109375 64.484375 C227.3377879 73.35589743 237.21835435 82.50450644 245.875 93.36328125 C247.32370554 95.17800251 248.79707738 96.97336476 250.296875 98.74609375 C260.51764858 110.84964141 268.63348238 124.19459607 276.0859375 138.1328125 C276.42334961 138.75704102 276.76076172 139.38126953 277.10839844 140.02441406 C290.02485633 164.10573214 299.28918626 191.04015776 303.0859375 218.1328125 C303.28678955 219.51799072 303.28678955 219.51799072 303.49169922 220.93115234 C309.90090456 266.53095416 305.91207233 310.97472232 277.71875 348.72265625 C263.60234344 367.18784377 247.15737468 381.4737136 228.29296875 394.8515625 C225.49762732 396.83996615 222.71008465 398.83107584 219.9609375 400.8828125 C219.29835938 401.37265625 218.63578125 401.8625 217.953125 402.3671875 C212.24430099 407.7654897 210.71676135 413.97621437 208.7734375 421.3828125 C208.32133911 423.05089966 208.32133911 423.05089966 207.86010742 424.75268555 C206.92526981 428.21010084 206.00499206 431.67117309 205.0859375 435.1328125 C204.55839802 437.09274604 204.02979857 439.05239467 203.5 441.01171875 C202.39266727 445.11079254 201.29078507 449.21128627 200.19140625 453.3125 C197.66223004 462.72701054 195.10034639 472.13262319 192.53720093 481.53793335 C191.98773591 483.5544649 191.43860092 485.57108641 190.88980103 487.58779907 C190.11490189 490.43507212 189.33886652 493.28203302 188.5625 496.12890625 C188.32739212 496.99335358 188.09228424 497.8578009 187.85005188 498.7484436 C187.63221542 499.5461618 187.41437897 500.34388 187.18994141 501.16577148 C187.00009674 501.8623436 186.81025208 502.55891571 186.61465454 503.27659607 C186.14976463 504.90872863 185.62259189 506.52284934 185.0859375 508.1328125 C181.53441262 506.54507196 178.70511668 504.40282009 175.6484375 502.0078125 C174.47940389 501.10125651 173.31011497 500.19502969 172.140625 499.2890625 C170.02936928 497.64732642 167.92011902 496.00312207 165.81347656 494.35546875 C148.02520658 480.47123692 129.62033615 467.80137883 110.1484375 456.3828125 C109.17221436 455.81030762 108.19599121 455.23780273 107.19018555 454.64794922 C96.63274105 447.92181222 96.63274105 447.92181222 84.7109375 446.2578125 C83.18146484 446.44730469 83.18146484 446.44730469 81.62109375 446.640625 C80.45449219 446.80304688 79.28789063 446.96546875 78.0859375 447.1328125 C68.54737334 448.27046021 59.01175514 449.23602427 49.4140625 449.6796875 C48.51528885 449.72132019 47.6165152 449.76295288 46.69050598 449.80584717 C7.0139478 451.51416867 -31.47299971 449.34922111 -70.578125 442.53515625 C-71.85123535 442.31335693 -73.1243457 442.09155762 -74.43603516 441.86303711 C-77.71370646 441.17487799 -80.75670455 440.23721939 -83.9140625 439.1328125 C-85.80488313 438.73330481 -87.70145412 438.36051236 -89.6015625 438.0078125 C-132.23462269 428.97121422 -175.13327954 411.03777396 -208.9140625 383.1328125 C-209.77789551 382.42125 -209.77789551 382.42125 -210.65917969 381.6953125 C-243.2511049 354.67901615 -266.24425682 319.45945446 -270.72216797 276.67504883 C-275.09278992 218.77264885 -258.16716682 157.0902502 -223.9140625 110.1328125 C-223.32359131 109.31925293 -223.32359131 109.31925293 -222.72119141 108.48925781 C-217.8468968 101.83469937 -212.61052785 95.50466722 -207.2265625 89.2578125 C-206.70408936 88.65130859 -206.18161621 88.04480469 -205.64331055 87.41992188 C-199.54503225 80.43512662 -192.94790775 74.16182272 -185.9140625 68.1328125 C-184.56248047 66.93011719 -184.56248047 66.93011719 -183.18359375 65.703125 C-134.26093629 22.60307623 -64.74059361 -0.12860209 0 0 Z M-43.9140625 42.1328125 C-45.61199951 42.45427246 -45.61199951 42.45427246 -47.34423828 42.78222656 C-92.51125384 51.64913317 -134.54409029 71.1751521 -167.9140625 103.1328125 C-168.41292969 103.60444824 -168.91179687 104.07608398 -169.42578125 104.56201172 C-210.26043554 143.3103196 -231.19651525 199.05528901 -233.16796875 254.5859375 C-233.90119873 284.77020244 -225.84474615 310.96711117 -205.9140625 334.1328125 C-205.2025 334.96683594 -204.4909375 335.80085938 -203.7578125 336.66015625 C-177.20890462 366.99508796 -138.7925723 384.5307299 -100.9140625 396.1328125 C-99.99705566 396.41640625 -99.08004883 396.7 -98.13525391 396.9921875 C-79.65265851 402.65755562 -61.07835051 406.0593688 -41.9765625 408.8203125 C-41.22848328 408.92908722 -40.48040405 409.03786194 -39.70965576 409.14993286 C-37.51941273 409.46610092 -35.32830425 409.77531926 -33.13671875 410.08203125 C-31.23031616 410.35019653 -31.23031616 410.35019653 -29.28540039 410.6237793 C-19.22702356 411.875636 -9.18299619 412.2905468 0.9453125 412.30078125 C2.1328009 412.30410965 3.32028931 412.30743805 4.54376221 412.31086731 C7.04463315 412.31589625 9.54551072 412.31827689 12.04638672 412.31811523 C15.78494992 412.32028294 19.52320826 412.33843089 23.26171875 412.35742188 C35.14003237 412.38578395 46.9433975 412.17598345 58.7890625 411.24609375 C59.78476257 411.16836227 60.78046265 411.0906308 61.80633545 411.01054382 C67.29438168 410.52836079 72.61375949 409.73353313 77.99880981 408.56741333 C94.37925046 405.15652805 110.11766281 413.55293204 124.0859375 421.1328125 C125.20097656 421.72707031 126.31601562 422.32132813 127.46484375 422.93359375 C135.97037626 427.62318487 143.97890507 432.97401118 151.97924805 438.47314453 C153.27342651 439.35462158 153.27342651 439.35462158 154.59375 440.25390625 C155.36348145 440.7842749 156.13321289 441.31464355 156.92626953 441.86108398 C159.01369433 443.09027184 160.71834999 443.69204181 163.0859375 444.1328125 C165.12733379 438.9516912 166.72501023 433.8934624 167.8984375 428.4453125 C174.91607226 397.652236 174.91607226 397.652236 182.0859375 387.1328125 C182.59640625 386.37355469 183.106875 385.61429688 183.6328125 384.83203125 C190.23198105 375.73460604 198.6649098 368.77036564 208.20703125 362.9609375 C234.92417344 345.99537095 258.24466854 319.66528162 265.64428711 288.33691406 C275.91773691 237.06620936 260.46862335 180.49542099 231.9609375 137.5703125 C227.63092544 131.17881293 223.13625969 124.9800093 218.0859375 119.1328125 C217.415625 118.35292969 216.7453125 117.57304687 216.0546875 116.76953125 C205.71401664 105.02387793 194.77641787 94.3110957 182.0859375 85.1328125 C181.42529297 84.65489258 180.76464844 84.17697266 180.08398438 83.68457031 C147.50659652 60.43908707 109.50951142 46.42245844 69.9609375 41.0078125 C68.77628906 40.83894531 67.59164063 40.67007813 66.37109375 40.49609375 C55.1120303 38.9195766 44.03926697 37.97369878 32.66796875 37.89453125 C31.50444885 37.8847374 30.34092896 37.87494354 29.14215088 37.86485291 C-7.56561749 37.59379617 -7.56561749 37.59379617 -43.9140625 42.1328125 Z " fill="#99AEFD" transform="translate(522.9140625,309.8671875)"/>
<path d="M0 0 C1.7924263 -0.00551376 1.7924263 -0.00551376 3.62106323 -0.01113892 C25.25315803 -0.04588882 46.82039322 0.97667612 68.25 4.0625 C70.0295105 4.31519653 70.0295105 4.31519653 71.8449707 4.57299805 C138.58816763 14.40298408 204.77287293 37.44937494 257 81.3125 C257.86044922 82.03083008 257.86044922 82.03083008 258.73828125 82.76367188 C262.87261728 86.22696644 266.94999941 89.7511278 271 93.3125 C271.76908691 93.98466553 271.76908691 93.98466553 272.55371094 94.67041016 C309.56893937 127.17011788 340.72078883 172.36124082 356.5 219.125 C357.10095354 220.88041692 357.70251817 222.63562476 358.3046875 224.390625 C358.7373291 225.65616211 358.7373291 225.65616211 359.17871094 226.94726562 C360.27656787 230.10898916 361.45470084 233.23948149 362.625 236.375 C367.66275123 250.49722065 370.84782606 265.18537399 373.5546875 279.90966797 C373.83716341 281.43386091 374.12785558 282.95657249 374.4296875 284.47705078 C380.18094023 313.49781778 381.8910909 347.1039854 377 376.3125 C376.77401123 377.68414307 376.77401123 377.68414307 376.54345703 379.08349609 C371.12595065 410.95883384 359.79873628 440.86311524 341 467.3125 C339.87851563 468.90191406 339.87851563 468.90191406 338.734375 470.5234375 C309.63543339 510.40364165 309.63543339 510.40364165 294 514.3125 C288.13897995 514.78516291 284.22239727 514.31054287 279 511.3125 C274.33021133 507.06138204 271.27636763 502.66935433 270.8671875 496.21875 C271.07872355 489.35558053 274.22967901 485.93575907 279 481.3125 C279.65871094 480.65378906 280.31742188 479.99507812 280.99609375 479.31640625 C282.34245358 477.97004642 283.69278506 476.62764759 285.046875 475.2890625 C287.46276649 472.84418032 289.72458438 470.30048489 291.9609375 467.69140625 C293.55583822 465.83068874 295.16623271 463.98847525 296.7890625 462.15234375 C319.31962589 436.50227512 333.35854175 406.97493979 339 373.3125 C339.1750708 372.28632568 339.3501416 371.26015137 339.53051758 370.20288086 C340.10519462 365.44080148 340.19966444 360.75728013 340.23828125 355.96484375 C340.25297203 354.46976791 340.25297203 354.46976791 340.26795959 352.94448853 C340.44100663 330.73308797 340.24111816 309.18704727 336 287.3125 C335.70246826 285.71583496 335.70246826 285.71583496 335.39892578 284.08691406 C326.18897807 236.00761663 305.00440895 191.78646932 275 153.3125 C273.79537109 151.765625 273.79537109 151.765625 272.56640625 150.1875 C260.15729365 134.93918244 245.6245389 120.01225282 229.65087891 108.51025391 C227.89480294 107.23617691 226.17160897 105.92467686 224.44921875 104.60546875 C177.85692101 69.20698139 120.51422243 50.03666994 62.97631836 42.56964111 C61.07916472 42.32280022 59.18310607 42.06758729 57.28710938 41.81201172 C37.83909221 39.29376954 18.46323618 39.0285743 -1.125 39 C-2.93930008 38.99448624 -2.93930008 38.99448624 -4.79025269 38.98886108 C-26.40524731 38.95456059 -47.6729864 40.41076538 -69.0625 43.5 C-70.15930084 43.65714981 -70.15930084 43.65714981 -71.27825928 43.81747437 C-131.29918573 52.52836906 -191.55458346 75.40671156 -237.43383789 115.93530273 C-238.54782093 116.91487847 -239.67035684 117.88476472 -240.79858398 118.84790039 C-246.43593127 123.68827502 -251.69728603 128.86050704 -256.9375 134.125 C-257.79923828 134.98287109 -258.66097656 135.84074219 -259.54882812 136.72460938 C-260.36673828 137.54380859 -261.18464844 138.36300781 -262.02734375 139.20703125 C-263.13710571 140.31848511 -263.13710571 140.31848511 -264.26928711 141.45239258 C-266.06448668 143.2065907 -266.06448668 143.2065907 -267 145.3125 C-267.66 145.3125 -268.32 145.3125 -269 145.3125 C-269.33064453 146.10140625 -269.33064453 146.10140625 -269.66796875 146.90625 C-271.49064196 150.19882095 -273.91009751 152.9361307 -276.3125 155.8125 C-300.16948522 185.07168452 -317.76279619 221.29466572 -328.0090332 257.50976562 C-329.91043732 262.88747423 -333.15480193 265.98224092 -337.6875 269.25 C-343.42018765 271.08878661 -348.99935828 271.66211397 -354.60546875 269.140625 C-359.44433823 266.07784954 -362.92512447 263.07214998 -364.54345703 257.41162109 C-366.39608887 248.89347749 -363.90617731 241.68066093 -361.125 233.6875 C-360.72007324 232.50325439 -360.31514648 231.31900879 -359.89794922 230.09887695 C-355.87176889 218.55546121 -351.19005284 207.37668699 -346 196.3125 C-345.35442139 194.93070557 -345.35442139 194.93070557 -344.69580078 193.52099609 C-331.62876569 165.83167258 -314.74440545 140.26800322 -294.109375 117.640625 C-292.24324433 115.58096967 -290.42930212 113.48861105 -288.625 111.375 C-281.68749423 103.42342726 -274.0487112 96.12515912 -266 89.3125 C-265.0925 88.51585937 -264.185 87.71921875 -263.25 86.8984375 C-207.45354265 38.23311814 -135.59703433 12.69012703 -63 3.3125 C-61.74525879 3.14733887 -60.49051758 2.98217773 -59.19775391 2.81201172 C-39.49624819 0.34581676 -19.84015025 0.02915419 0 0 Z " fill="#5C6C98" transform="translate(540,240.6875)"/>
<path d="M0 0 C4.52815133 2.96671983 7.45827109 7.32793828 9.15234375 12.41015625 C9.26769624 14.23990382 9.33069962 16.0731595 9.36328125 17.90625 C10.46539185 64.86916784 23.11717384 109.74480379 56.15234375 144.41015625 C57.00143311 145.30806885 57.00143311 145.30806885 57.86767578 146.22412109 C94.01474699 184.22777339 144.93826589 204.67872304 195.36865234 215.77270508 C198.19430536 216.41976525 200.98979404 217.14882774 203.79296875 217.88671875 C211.54192355 219.83550163 219.39163412 221.10434489 227.27734375 222.34765625 C228.08438751 222.47610931 228.89143127 222.60456238 229.72293091 222.73690796 C249.05030191 225.78346529 268.49100281 227.6691724 287.98867798 229.23580933 C289.94689999 229.39360171 291.90452222 229.55879449 293.86206055 229.72485352 C301.4530686 230.31031759 309.00615989 230.50328116 316.6171875 230.5859375 C317.6295195 230.59798721 318.6418515 230.61003693 319.68486023 230.62245178 C323.88733597 230.6708825 328.08950174 230.71846178 332.29223633 230.73608398 C335.40101692 230.75158615 338.50869941 230.79174441 341.6171875 230.8359375 C343.02676979 230.83307487 343.02676979 230.83307487 344.46482849 230.83015442 C351.48675345 230.95997938 356.84320234 232.54683845 362.2109375 237.19140625 C362.66597656 237.75859375 363.12101562 238.32578125 363.58984375 238.91015625 C364.06292969 239.47734375 364.53601563 240.04453125 365.0234375 240.62890625 C367.9441764 245.23740777 367.94434258 251.1583582 367.15234375 256.41015625 C364.59181097 262.48551631 361.25503292 265.72846717 355.41894531 268.56140137 C351.65017402 269.97266089 348.08854983 269.92390003 344.10546875 269.8359375 C343.25418396 269.83264938 342.40289917 269.82936127 341.52581787 269.82597351 C338.81745999 269.81035015 336.11037455 269.76652179 333.40234375 269.72265625 C331.63282302 269.71114058 329.8632901 269.70136265 328.09375 269.69335938 C308.81616126 269.56123814 289.65723056 268.35463364 270.46484375 266.59765625 C269.5050058 266.51056396 268.54516785 266.42347168 267.5562439 266.33374023 C253.56150127 265.05202302 239.75625145 263.3986895 225.92285156 260.88818359 C223.07542534 260.39688464 220.22542296 259.98205027 217.36328125 259.5859375 C158.35605141 251.27356432 96.24357641 229.95069783 50.15234375 191.41015625 C49.5608252 190.92015137 48.96930664 190.43014648 48.35986328 189.92529297 C36.81701881 180.33656423 26.44743567 170.23593245 17.15234375 158.41015625 C15.9303125 156.89615234 15.9303125 156.89615234 14.68359375 155.3515625 C8.38930524 147.47213596 3.03987197 139.22749097 -1.84765625 130.41015625 C-2.18506836 129.80397461 -2.52248047 129.19779297 -2.87011719 128.57324219 C-19.0811961 98.98209229 -27.05707471 65.91961082 -28.84765625 32.41015625 C-28.89970215 31.44352051 -28.95174805 30.47688477 -29.00537109 29.48095703 C-29.13717584 26.64453797 -29.22155805 23.81135676 -29.28515625 20.97265625 C-29.31963867 20.12703125 -29.35412109 19.28140625 -29.38964844 18.41015625 C-29.43189034 12.21799098 -27.71982856 8.22874837 -23.84765625 3.41015625 C-16.60559096 -3.46980577 -8.92334298 -4.25574819 0 0 Z " fill="#6E7DFC" transform="translate(190.84765625,568.58984375)"/>
<path d="M0 0 C9.56612241 5.51393516 13.48013949 15.04129485 16.64453125 25.1640625 C19.22279127 35.7197879 20.12751593 45.88552266 20.03564453 56.72045898 C20.0194119 58.99327396 20.03568485 61.2643441 20.0546875 63.53710938 C20.07161616 75.03362162 19.08097292 85.88963666 11.64453125 95.1640625 C5.90737426 100.90121949 0.23831204 103.28107443 -7.79296875 103.5390625 C-16.22282621 103.24797626 -22.45821935 101.02284126 -28.6328125 95.1796875 C-36.91201005 85.49246315 -36.76363919 71.95142033 -36.73046875 59.9140625 C-36.73025726 59.20907623 -36.73004578 58.50408997 -36.72982788 57.77774048 C-36.68200529 41.7698662 -35.5799224 25.3122384 -27.35546875 11.1640625 C-26.71609375 10.0503125 -26.07671875 8.9365625 -25.41796875 7.7890625 C-19.02766147 -0.34405585 -10.11917543 -3.59121649 0 0 Z " fill="#FDFDFD" transform="translate(644.35546875,516.8359375)"/>
<path d="M0 0 C7.96769393 4.3970444 12.29090178 12.44565667 14.93359375 20.8515625 C15.51323282 22.97195157 16.07762779 25.09661508 16.62109375 27.2265625 C16.83507812 27.95875 17.0490625 28.6909375 17.26953125 29.4453125 C20.15190833 39.63806625 19.85429568 50.60249768 19.93359375 61.1015625 C19.96259766 62.37386719 19.99160156 63.64617187 20.02148438 64.95703125 C20.09190759 75.56385071 18.74460912 86.84595618 11.62109375 95.2265625 C5.46330746 101.2443991 -0.33398384 103.36047892 -8.75390625 103.7265625 C-16.73611031 103.51382705 -23.0620675 100.95591488 -28.69140625 95.2265625 C-36.46303855 84.59561219 -37.18204993 73.2770198 -36.94140625 60.6640625 C-36.93370209 59.87241699 -36.92599792 59.08077148 -36.9180603 58.26513672 C-36.72574375 39.48024428 -35.51398074 18.42422674 -22.22265625 3.84765625 C-15.81480451 -1.78636593 -8.12067421 -2.6402192 0 0 Z " fill="#FDFDFD" transform="translate(453.37890625,516.7734375)"/>
<path d="M0 0 C0.33 0 0.66 0 1 0 C1 28.38 1 56.76 1 86 C-27.38 86 -55.76 86 -85 86 C-85 85.67 -85 85.34 -85 85 C-83.94683594 84.78085938 -82.89367187 84.56171875 -81.80859375 84.3359375 C-54.36006223 78.40441276 -31.4777528 65.40141845 -15.71875 41.59765625 C-7.412002 28.62571131 -2.69558566 15.13311246 0 0 Z " fill="#000000" transform="translate(1079,994)"/>
<path d="M0 0 C0.33 0 0.66 0 1 0 C1.21914063 1.05316406 1.43828125 2.10632813 1.6640625 3.19140625 C7.59558724 30.63993777 20.59858155 53.5222472 44.40234375 69.28125 C57.37428869 77.587998 70.86688754 82.30441434 86 85 C86 85.33 86 85.66 86 86 C57.62 86 29.24 86 0 86 C0 57.62 0 29.24 0 0 Z " fill="#000000" transform="translate(0,994)"/>
<path d="M0 0 C28.38 0 56.76 0 86 0 C86 28.38 86 56.76 86 86 C85.67 86 85.34 86 85 86 C84.78085938 84.94683594 84.56171875 83.89367187 84.3359375 82.80859375 C78.40441276 55.36006223 65.40141845 32.4777528 41.59765625 16.71875 C28.62571131 8.412002 15.13311246 3.69558566 0 1 C0 0.67 0 0.34 0 0 Z " fill="#000000" transform="translate(994,0)"/>
<path d="M0 0 C28.38 0 56.76 0 86 0 C86 0.33 86 0.66 86 1 C84.94683594 1.21914063 83.89367187 1.43828125 82.80859375 1.6640625 C55.36006223 7.59558724 32.4777528 20.59858155 16.71875 44.40234375 C8.412002 57.37428869 3.69558566 70.86688754 1 86 C0.67 86 0.34 86 0 86 C0 57.62 0 29.24 0 0 Z " fill="#000000" transform="translate(0,0)"/>
</svg>
