<?xml version="1.0" encoding="UTF-8"?>
<svg version="1.1" xmlns="http://www.w3.org/2000/svg" width="1080" height="1080">
<path d="M0 0 C356.4 0 712.8 0 1080 0 C1080 356.4 1080 712.8 1080 1080 C723.6 1080 367.2 1080 0 1080 C0 723.6 0 367.2 0 0 Z " fill="#F0F0FD" transform="translate(0,0)"/>
<path d="M0 0 C1.13418869 0.00090637 1.13418869 0.00090637 2.29129028 0.00183105 C34.42300496 0.07084916 66.07167251 3.81697274 97.125 12.1875 C98.00591309 12.42194824 98.88682617 12.65639648 99.79443359 12.89794922 C119.1232609 18.119865 137.43290108 25.86812436 155.125 35.1875 C156.21683594 35.74953125 157.30867188 36.3115625 158.43359375 36.890625 C164.74450557 40.19670855 170.86983162 43.7706888 176.9375 47.5 C177.65035156 47.93296387 178.36320312 48.36592773 179.09765625 48.81201172 C180.80988592 49.88089131 182.47309769 51.02756346 184.125 52.1875 C184.125 52.8475 184.125 53.5075 184.125 54.1875 C184.84300781 54.43371094 185.56101562 54.67992187 186.30078125 54.93359375 C191.60954138 57.29059514 195.74882555 61.43053935 200.125 65.1875 C200.89714844 65.84621094 201.66929687 66.50492187 202.46484375 67.18359375 C215.02803756 78.20054832 227.01255818 90.01678051 236.8984375 103.51660156 C238.11157566 105.16921254 239.35038912 106.79974369 240.59375 108.4296875 C252.26154375 123.96829143 261.3624873 141.41903986 269.125 159.1875 C269.44307617 159.91469238 269.76115234 160.64188477 270.08886719 161.39111328 C275.12084722 173.1034806 278.49740088 185.10624011 281.47265625 197.48632812 C282.05502985 199.89777329 282.66385775 202.30047614 283.28125 204.703125 C294.7478543 250.75457268 291.55737166 298.73898926 267.25390625 339.87890625 C261.13993219 349.38080723 253.88839156 357.99139481 246.125 366.1875 C245.25617187 367.12078125 244.38734375 368.0540625 243.4921875 369.015625 C233.86513617 379.13907117 222.75504275 387.30730784 211.30175781 395.24536133 C195.17793908 406.47304486 192.0759504 419.76631842 187.24609375 437.97265625 C186.78864301 439.68188363 186.33071271 441.39098273 185.87232971 443.09996033 C184.67413762 447.57144196 183.48152674 452.04439162 182.29040527 456.51776123 C180.38255802 463.67898733 178.466039 470.83789748 176.54969978 477.99685478 C175.88613208 480.47890591 175.2248979 482.96156897 174.56407166 485.4443512 C172.53262048 493.06088025 170.47555726 500.66165664 168.125 508.1875 C163.34713797 506.65786432 160.10246932 503.96640102 156.3125 500.8125 C154.96767828 499.71686632 153.62127427 498.62317245 152.2734375 497.53125 C151.58475586 496.97308594 150.89607422 496.41492188 150.18652344 495.83984375 C129.06228543 478.90843176 106.41015668 462.84256456 82.3125 450.4375 C81.69729492 450.11410645 81.08208984 449.79071289 80.44824219 449.45751953 C71.82206699 445.19648236 64.07309137 446.30066797 54.875 447.5625 C52.74508353 447.84336811 50.61487367 448.12202029 48.484375 448.3984375 C47.55077148 448.52524902 46.61716797 448.65206055 45.65527344 448.78271484 C36.29934971 449.85547567 27.02458086 450.3524203 17.609375 450.390625 C16.44745132 450.39763931 15.28552765 450.40465363 14.08839417 450.41188049 C10.35055632 450.42931158 6.61287702 450.43573466 2.875 450.4375 C1.59700531 450.43817474 0.31901062 450.43884949 -0.99771118 450.43954468 C-20.47697221 450.42320238 -39.57063136 449.94946446 -58.875 447.1875 C-60.12587402 447.01057617 -61.37674805 446.83365234 -62.66552734 446.65136719 C-127.24173162 437.23451231 -192.81069705 416.07006706 -240.875 370.1875 C-241.73996094 369.37539063 -242.60492188 368.56328125 -243.49609375 367.7265625 C-270.02687243 342.14774624 -287.12880274 305.34419483 -288.078125 268.38671875 C-288.81375602 208.01376003 -271.49544036 147.37583637 -232.875 100.1875 C-232.13894531 99.26066406 -231.40289062 98.33382812 -230.64453125 97.37890625 C-218.0315867 81.6406303 -203.93315118 68.35532008 -187.875 56.1875 C-187.33037109 55.77000488 -186.78574219 55.35250977 -186.22460938 54.92236328 C-133.54611094 14.7765064 -65.14314952 -0.09769166 0 0 Z M-162.875 84.1875 C-163.81214844 84.89519531 -164.74929688 85.60289062 -165.71484375 86.33203125 C-170.84508174 90.33978266 -175.69193755 94.64059708 -180.49609375 99.03125 C-182.65010509 100.98365436 -184.84527726 102.87027359 -187.0625 104.75 C-191.06990421 108.26246584 -194.50329758 112.06653038 -197.875 116.1875 C-198.7103125 117.2084375 -199.545625 118.229375 -200.40625 119.28125 C-215.94286976 138.52893401 -228.55625254 159.82082721 -236.875 183.1875 C-237.30039062 184.34507812 -237.72578125 185.50265625 -238.1640625 186.6953125 C-251.28966345 223.97846121 -257.61075471 269.83877311 -240.60107422 306.76391602 C-235.7390044 316.79470793 -230.17359335 325.76012595 -222.875 334.1875 C-222.02808594 335.16847656 -221.18117188 336.14945313 -220.30859375 337.16015625 C-214.36692921 343.90752462 -208.06514725 349.75387194 -200.875 355.1875 C-199.86308594 355.96480469 -198.85117187 356.74210937 -197.80859375 357.54296875 C-165.29235654 381.96808145 -125.42872561 396.1356463 -85.875 404.1875 C-84.23168701 404.52322021 -84.23168701 404.52322021 -82.55517578 404.86572266 C-74.35773759 406.504743 -66.13716703 407.91675348 -57.875 409.1875 C-56.81619629 409.35411133 -55.75739258 409.52072266 -54.66650391 409.69238281 C-37.17345939 412.31430384 -19.71691946 412.47219776 -2.0625 412.5 C-0.94618195 412.50367584 0.17013611 412.50735168 1.32028198 412.51113892 C19.77352962 412.54283883 38.09542888 411.69021879 56.375 409.0625 C88.38218603 404.69303953 116.80444396 424.71515146 141.75390625 442.640625 C143.93233254 444.36963135 143.93233254 444.36963135 146.125 444.1875 C146.54797363 442.69923706 146.54797363 442.69923706 146.97949219 441.1809082 C148.04416567 437.43620346 149.11069488 433.69202922 150.17773438 429.94799805 C150.63590885 428.3394142 151.09360573 426.73069422 151.55078125 425.12182617 C153.06146421 419.80627616 154.58525467 414.49470568 156.125 409.1875 C156.67377808 407.29269897 156.67377808 407.29269897 157.23364258 405.35961914 C163.0304312 385.87192271 175.32490037 373.2137765 192.0625 362.25 C198.10927875 358.28325128 203.64736382 353.90282526 209.125 349.1875 C210.05441406 348.3934375 210.98382812 347.599375 211.94140625 346.78125 C233.90785779 327.47276965 248.09488375 301.29948478 251.125 272.1875 C251.40140815 267.37047783 251.45941247 262.57423688 251.4375 257.75 C251.43258545 256.44812744 251.4276709 255.14625488 251.42260742 253.80493164 C250.85767535 206.5215661 233.85631988 155.77725624 202.125 120.1875 C201.36316406 119.32898438 200.60132813 118.47046875 199.81640625 117.5859375 C198.30080731 115.89398725 196.77763716 114.20878109 195.24609375 112.53125 C193.30668497 110.38825688 191.43170701 108.20405362 189.5625 106 C186.0474469 101.9907671 182.23365718 98.57763208 178.125 95.1875 C177.62532715 94.76484863 177.1256543 94.34219727 176.61083984 93.90673828 C107.52218309 35.5782896 3.39498153 24.08860794 -162.875 84.1875 Z " fill="#9AAFFE" transform="translate(539.875,309.8125)"/>
<path d="M0 0 C12.41229761 11.59502699 24.99294224 23.35587103 35.25 36.9375 C36.25742664 38.2187769 37.2667006 39.49860244 38.27734375 40.77734375 C54.17297345 61.02842295 67.74190584 83.14323981 78.22167969 106.67651367 C78.99159374 108.36933752 79.78843979 110.04995715 80.59863281 111.72387695 C84.87007787 120.6463123 88.15606874 129.74034814 91.25 139.125 C91.64119019 140.30444687 91.64119019 140.30444687 92.0402832 141.50772095 C103.26261015 175.49201507 109.72168549 211.15867093 109.5625 247 C109.56100952 247.84001556 109.55951904 248.68003113 109.5579834 249.54550171 C109.51165363 264.17274212 108.67822701 278.48703918 106.25 292.9375 C106.11609863 293.74268066 105.98219727 294.54786133 105.84423828 295.37744141 C99.00317092 334.40884025 79.42166335 370.85144064 51.93310547 399.19873047 C50.67000975 400.50359959 49.41518797 401.81648612 48.16455078 403.13330078 C45.83323407 405.58315058 43.48175653 408.01213057 41.125 410.4375 C40.38483643 411.21601318 39.64467285 411.99452637 38.88208008 412.79663086 C33.51093557 418.24636877 28.19780454 422.3960166 20.39453125 423.25 C13.46967275 422.32204576 9.09948924 420.19920362 4.4375 414.875 C1.62427244 411.09723728 1.0438578 408.35462233 0.875 403.75 C0.82601562 402.84894531 0.77703125 401.94789063 0.7265625 401.01953125 C2.03516889 393.31437873 7.65884316 388.24300624 13.3125 383.3125 C43.8207915 355.71278261 63.0522393 318.43318067 69.25 277.9375 C69.3545752 277.28080322 69.45915039 276.62410645 69.56689453 275.94750977 C70.68698959 267.69908164 70.49311523 259.30880166 70.5 251 C70.50100708 250.15702362 70.50201416 249.31404724 70.50305176 248.44552612 C70.49123307 233.75993433 69.50813849 219.46209986 67.25 204.9375 C67.11078125 203.97956543 66.9715625 203.02163086 66.828125 202.03466797 C59.28434604 150.49424294 37.91815509 101.48567333 5.25 60.9375 C4.50492188 59.98746094 3.75984375 59.03742188 2.9921875 58.05859375 C-9.66599021 42.44955468 -24.60077603 26.91982686 -40.97753906 15.21386719 C-42.98470937 13.76848339 -44.95621963 12.28010726 -46.9296875 10.7890625 C-57.40632343 2.95110581 -68.29071596 -3.76662015 -79.75 -10.0625 C-80.45979004 -10.45920898 -81.16958008 -10.85591797 -81.90087891 -11.26464844 C-101.89178566 -22.42214633 -122.92199044 -30.27297377 -144.75 -37.0625 C-145.39469238 -37.26470154 -146.03938477 -37.46690308 -146.70361328 -37.67523193 C-157.44389468 -41.02370659 -168.19791265 -43.60339465 -179.25 -45.6875 C-180.03157471 -45.83657806 -180.81314941 -45.98565613 -181.6184082 -46.13925171 C-247.65691861 -58.68265018 -323.29901155 -59.32945724 -387.79199219 -38.67431641 C-389.78222434 -38.0524309 -391.78077118 -37.47861273 -393.7890625 -36.91796875 C-421.65769392 -29.12254737 -448.31044685 -17.62816778 -472.75 -2.0625 C-473.39324219 -1.65435059 -474.03648437 -1.24620117 -474.69921875 -0.82568359 C-530.68187873 34.97360721 -573.53836005 89.33193668 -593.6796875 152.90234375 C-593.97963623 153.84706543 -594.27958496 154.79178711 -594.58862305 155.76513672 C-595.13231631 157.51677661 -595.65652209 159.27465753 -596.15551758 161.03955078 C-598.27425303 167.99918999 -601.89265246 173.75726009 -608.35546875 177.41015625 C-614.46800432 178.75631009 -620.53977232 179.08515203 -626.125 175.9375 C-630.20528253 172.93185978 -632.89398829 169.6588993 -634.75 164.9375 C-635.92535339 156.48153342 -633.66562192 149.08812465 -630.875 141.1875 C-630.47007324 140.01227783 -630.06514648 138.83705566 -629.64794922 137.6262207 C-625.60644971 126.12569746 -620.9251209 114.96985499 -615.75 103.9375 C-615.10442139 102.55570557 -615.10442139 102.55570557 -614.44580078 101.14599609 C-605.39492073 81.96698997 -594.5366981 63.86225552 -581.75 46.9375 C-581.32009766 46.36483398 -580.89019531 45.79216797 -580.44726562 45.20214844 C-574.52257732 37.35301758 -568.21497849 29.99979308 -561.47265625 22.84375 C-559.23699345 20.45733232 -557.0685421 18.04156464 -554.9375 15.5625 C-549.3571393 9.13295398 -543.21139228 3.46497676 -536.75 -2.0625 C-535.84894531 -2.85269531 -534.94789063 -3.64289063 -534.01953125 -4.45703125 C-518.42801861 -18.02789198 -501.55885689 -29.60518738 -483.75 -40.0625 C-482.92387207 -40.54847656 -482.09774414 -41.03445313 -481.24658203 -41.53515625 C-463.96305921 -51.60149685 -445.66347055 -59.69491872 -426.80371094 -66.33837891 C-425.38278902 -66.83938395 -423.96430463 -67.34733635 -422.54785156 -67.86083984 C-400.09233841 -75.97108723 -376.87850023 -81.41499862 -353.375 -85.4375 C-352.66954041 -85.55892365 -351.96408081 -85.68034729 -351.23724365 -85.80545044 C-334.23429466 -88.69949001 -317.22063611 -90.34170085 -300 -91.1875 C-299.16840363 -91.22919312 -298.33680725 -91.27088623 -297.48001099 -91.31384277 C-205.42509444 -95.8799868 -111.37767869 -78.91160472 0 0 Z " fill="#C2D2FE" transform="translate(809.75,333.0625)"/>
<path d="M0 0 C4.6923022 2.13366949 7.08191837 4.72244786 9.5703125 9.31640625 C9.92673828 9.92830811 10.28316406 10.54020996 10.65039062 11.1706543 C11.76817543 13.77792889 11.85717682 15.81518726 11.9140625 18.6484375 C11.94226074 19.68677734 11.97045898 20.72511719 11.99951172 21.79492188 C12.02287598 22.89513672 12.04624023 23.99535156 12.0703125 25.12890625 C12.36581544 34.67760048 12.9932421 43.88531639 14.5703125 53.31640625 C14.77806818 54.68999479 14.98506573 56.06369816 15.19140625 57.4375 C19.52638009 85.16241631 31.11805379 112.30524257 48.5703125 134.31640625 C49.25432129 135.17975586 49.25432129 135.17975586 49.95214844 136.06054688 C98.90034521 197.00222768 184.18014778 219.17123359 258.5703125 227.31640625 C269.86177558 228.44721347 281.18232065 229.27248079 292.50390625 230.03442383 C295.00422637 230.20347178 297.49851938 230.39439627 299.99609375 230.60424805 C307.09692546 231.19017233 314.16031697 231.41179631 321.28125 231.4921875 C322.22773911 231.50420197 323.17422821 231.51621643 324.1493988 231.52859497 C328.07862025 231.57715618 332.00751202 231.62469709 335.93701172 231.64233398 C338.84391861 231.65784958 341.74965534 231.69801781 344.65625 231.7421875 C345.53348724 231.74027908 346.41072449 231.73837067 347.31454468 231.73640442 C354.12928065 231.87097337 359.50085442 233.5556413 364.62890625 238.16796875 C365.08394531 238.75320313 365.53898437 239.3384375 366.0078125 239.94140625 C366.48089844 240.53179688 366.95398438 241.1221875 367.44140625 241.73046875 C370.58814203 246.15114255 370.07864845 251.08478211 369.5703125 256.31640625 C367.95373904 261.63177008 365.34379934 265.36139058 360.5703125 268.31640625 C355.78282225 270.27910059 351.39823269 270.60897262 346.2890625 270.58203125 C345.0932103 270.58626099 345.0932103 270.58626099 343.87319946 270.59057617 C341.27205742 270.59485163 338.67140567 270.58221114 336.0703125 270.56640625 C334.72377594 270.56175354 334.72377594 270.56175354 333.35003662 270.55700684 C317.72984458 270.49388654 302.24809605 269.85765452 286.68182373 268.49676514 C284.40980133 268.30269587 282.13700051 268.12123749 279.86376953 267.94189453 C197.37529698 261.3945238 105.715762 243.04856402 43.5703125 184.31640625 C42.17964628 183.10212968 40.78398287 181.89354673 39.3828125 180.69140625 C31.948906 174.17930416 25.72305812 167.04781686 19.5703125 159.31640625 C18.7865625 158.3728125 18.0028125 157.42921875 17.1953125 156.45703125 C-13.61436125 118.33993488 -29.60172314 64.02720648 -26.4296875 15.31640625 C-25.49713453 8.88264632 -23.16935472 5.37292281 -18.05078125 1.41015625 C-12.92507118 -2.04815416 -5.80701626 -1.63380682 0 0 Z " fill="#6F7FFE" transform="translate(188.4296875,567.68359375)"/>
<path d="M0 0 C10.33220651 5.85028967 14.19459567 16.75067806 17.37890625 27.6015625 C19.8365478 37.66705032 19.89396938 48.21041868 19.95532227 58.51269531 C19.96684837 59.85232093 19.98731083 61.1919004 20.0168457 62.53125 C20.26588753 73.90647886 19.35165866 86.10351739 11.66015625 95.15234375 C5.64992533 101.02597851 0.09420833 103.27026482 -8.21484375 103.58984375 C-16.1608803 103.33933818 -22.6013727 101.39400596 -28.21484375 95.58984375 C-40.06249592 80.66850824 -37.76127415 55.86897418 -36.0234375 37.87646484 C-34.14483587 24.77413042 -29.88769417 10.92912519 -19.82421875 1.7734375 C-14.15204834 -2.17780742 -6.37131597 -2.30813951 0 0 Z " fill="#5E60EF" transform="translate(644.33984375,516.84765625)"/>
<path d="M0 0 C10.19057989 6.17297395 13.46790559 15.95126261 16.37109375 26.9609375 C16.58636719 27.69441406 16.80164063 28.42789063 17.0234375 29.18359375 C19.89235471 39.38186149 19.60427245 50.33379676 19.68359375 60.8359375 C19.71259766 62.10824219 19.74160156 63.38054687 19.77148438 64.69140625 C19.84190759 75.29822571 18.49460912 86.58033118 11.37109375 94.9609375 C5.21330746 100.9787741 -0.58398384 103.09485392 -9.00390625 103.4609375 C-17.07841895 103.24574191 -23.40673358 100.66372893 -29.00390625 94.7734375 C-36.73325267 84.78878604 -36.86924894 73.42129142 -36.87890625 61.3984375 C-36.87958099 60.65339966 -36.88025574 59.90836182 -36.88095093 59.14074707 C-36.85380589 40.31376028 -36.42212501 18.47290959 -22.62890625 3.9609375 C-22.14035156 3.435 -21.65179688 2.9090625 -21.1484375 2.3671875 C-15.37910608 -2.76110709 -6.94576236 -2.74527903 0 0 Z " fill="#5D5FEF" transform="translate(453.62890625,517.0390625)"/>
<path d="M0 0 C0.33 0 0.66 0 1 0 C1 28.38 1 56.76 1 86 C-27.38 86 -55.76 86 -85 86 C-85 85.67 -85 85.34 -85 85 C-83.94683594 84.78085938 -82.89367187 84.56171875 -81.80859375 84.3359375 C-54.36006223 78.40441276 -31.4777528 65.40141845 -15.71875 41.59765625 C-7.412002 28.62571131 -2.69558566 15.13311246 0 0 Z " fill="#000000" transform="translate(1079,994)"/>
<path d="M0 0 C0.33 0 0.66 0 1 0 C1.21914063 1.05316406 1.43828125 2.10632813 1.6640625 3.19140625 C7.59558724 30.63993777 20.59858155 53.5222472 44.40234375 69.28125 C57.37428869 77.587998 70.86688754 82.30441434 86 85 C86 85.33 86 85.66 86 86 C57.62 86 29.24 86 0 86 C0 57.62 0 29.24 0 0 Z " fill="#000000" transform="translate(0,994)"/>
<path d="M0 0 C28.38 0 56.76 0 86 0 C86 28.38 86 56.76 86 86 C85.67 86 85.34 86 85 86 C84.78085938 84.94683594 84.56171875 83.89367187 84.3359375 82.80859375 C78.40441276 55.36006223 65.40141845 32.4777528 41.59765625 16.71875 C28.62571131 8.412002 15.13311246 3.69558566 0 1 C0 0.67 0 0.34 0 0 Z " fill="#000000" transform="translate(994,0)"/>
<path d="M0 0 C28.38 0 56.76 0 86 0 C86 0.33 86 0.66 86 1 C84.94683594 1.21914063 83.89367187 1.43828125 82.80859375 1.6640625 C55.36006223 7.59558724 32.4777528 20.59858155 16.71875 44.40234375 C8.412002 57.37428869 3.69558566 70.86688754 1 86 C0.67 86 0.34 86 0 86 C0 57.62 0 29.24 0 0 Z " fill="#000000" transform="translate(0,0)"/>
</svg>
