<svg width="1080" height="1080" viewBox="0 0 1080 1080" fill="none" xmlns="http://www.w3.org/2000/svg">
<g clip-path="url(#clip0_7_132)">
<rect width="1080" height="1080" rx="100" fill="white"/>
<g opacity="0.5" filter="url(#filter0_f_7_132)">
<path d="M445 -341.5C445 18.3135 153.314 310 -206.5 310C-566.314 310 -858 18.3135 -858 -341.5C-858 -701.314 -566.314 -993 -206.5 -993C153.314 -993 445 -701.314 445 -341.5Z" fill="#8ab4f8"/>
</g>
<g opacity="0.5" filter="url(#filter1_f_7_132)">
<path d="M1997 1296.5C1997 1656.31 1705.31 1948 1345.5 1948C985.686 1948 694 1656.31 694 1296.5C694 936.686 985.686 645 1345.5 645C1705.31 645 1997 936.686 1997 1296.5Z" fill="#8ab4f8"/>
</g>
<path fill-rule="evenodd" clip-rule="evenodd" d="M348.965 419.288C308.83 461.51 289.936 517.365 289.936 571.344C289.936 620.194 319.893 657.401 368.082 683.39C416.473 709.487 480.563 722.451 540.5 722.451C561.583 722.451 583.305 720.844 604.756 717.581C611.463 716.561 617.995 717.968 622.802 719.409C627.997 720.965 633.38 723.255 638.554 725.78C648.926 730.842 660.179 737.702 670.297 744.346C675.726 747.911 680.949 751.495 685.688 754.832L696.316 715.552C701.095 697.891 712.964 684.085 726.981 675.142C766.827 649.722 791.063 615.384 791.063 571.344C791.063 517.365 772.169 461.51 732.034 419.288C692.176 377.357 629.999 347.432 540.5 347.432C451 347.432 388.823 377.357 348.965 419.288ZM685.102 801.219L685.1 801.217L685.073 801.196L684.947 801.099C684.832 801.009 684.653 800.871 684.416 800.689C683.941 800.323 683.229 799.777 682.309 799.078C680.468 797.68 677.799 795.672 674.524 793.267C667.957 788.442 659.047 782.085 649.568 775.86C640 769.577 630.273 763.708 621.991 759.666C617.838 757.64 614.476 756.284 611.962 755.531C610.734 755.163 610 755.028 609.677 754.978C586.579 758.452 563.221 760.163 540.5 760.163C476.001 760.163 405.374 746.356 350.156 716.576C294.738 686.689 252.195 638.914 252.195 571.344C252.195 508.901 274.018 443.373 321.6 393.317C369.459 342.969 441.998 309.72 540.5 309.72C639.001 309.72 711.54 342.969 759.399 393.317C806.981 443.373 828.804 508.901 828.804 571.344C828.804 631.92 794.497 676.812 747.291 706.928C739.723 711.756 734.655 718.353 732.75 725.394L707.509 818.683L685.104 801.22L685.102 801.219Z" fill="url(#paint0_linear_7_132)"/>
<path fill-rule="evenodd" clip-rule="evenodd" d="M540.428 278.711C347.451 278.711 245.129 382.151 211.908 497.612C209.028 507.62 198.571 513.402 188.552 510.526C178.533 507.649 172.745 497.204 175.624 487.195C213.541 355.414 330.784 241 540.428 241C670.446 241 765.56 285.007 828.107 351.056C890.371 416.807 919 502.965 919 585.181C919 654.535 889.949 708.729 842.34 750.623C834.518 757.507 822.59 756.753 815.699 748.939C808.807 741.125 809.562 729.21 817.385 722.327C857.865 686.705 881.248 642.432 881.248 585.181C881.248 511.385 855.52 434.88 800.681 376.971C746.125 319.36 661.392 278.711 540.428 278.711Z" fill="url(#paint1_linear_7_132)"/>
<path fill-rule="evenodd" clip-rule="evenodd" d="M540.428 278.711C347.451 278.711 245.129 382.151 211.908 497.612C209.028 507.62 198.571 513.402 188.552 510.526C178.533 507.649 172.745 497.204 175.624 487.195C213.541 355.414 330.784 241 540.428 241C670.446 241 765.56 285.007 828.107 351.056C890.371 416.807 919 502.965 919 585.181C919 654.535 889.949 708.729 842.34 750.623C834.518 757.507 822.59 756.753 815.699 748.939C808.807 741.125 809.562 729.21 817.385 722.327C857.865 686.705 881.248 642.432 881.248 585.181C881.248 511.385 855.52 434.88 800.681 376.971C746.125 319.36 661.392 278.711 540.428 278.711Z" fill="white" fill-opacity="0.4"/>
<path fill-rule="evenodd" clip-rule="evenodd" d="M180.818 566.347C191.211 566.347 199.636 574.785 199.636 585.195C199.636 656.913 229.069 709.325 284.602 744.765C341.374 780.995 426.86 800.311 539.401 800.311C549.793 800.311 558.218 808.75 558.218 819.16C558.218 829.57 549.793 838.009 539.401 838.009C423.625 838.009 329.82 818.32 264.379 776.557C197.7 734.004 162 669.433 162 585.195C162 574.785 170.425 566.347 180.818 566.347Z" fill="url(#paint2_linear_7_132)"/>
<path d="M664.514 579.568C664.514 608.33 654.102 619.694 636.059 619.694C618.016 619.694 607.604 608.33 607.604 579.568C607.604 550.806 613.598 515.538 636.059 515.538C658.52 515.538 664.514 550.806 664.514 579.568Z" fill="#9aa0a6"/>
<path d="M473.39 579.568C473.39 608.33 462.979 619.694 444.935 619.694C426.892 619.694 416.48 608.33 416.48 579.568C416.48 550.806 422.474 515.538 444.935 515.538C467.396 515.538 473.39 550.806 473.39 579.568Z" fill="#9aa0a6"/>
</g>
<defs>
<filter id="filter0_f_7_132" x="-1758" y="-1893" width="3103" height="3103" filterUnits="userSpaceOnUse" color-interpolation-filters="sRGB">
<feFlood flood-opacity="0" result="BackgroundImageFix"/>
<feBlend mode="normal" in="SourceGraphic" in2="BackgroundImageFix" result="shape"/>
<feGaussianBlur stdDeviation="450" result="effect1_foregroundBlur_7_132"/>
</filter>
<filter id="filter1_f_7_132" x="-206" y="-255" width="3103" height="3103" filterUnits="userSpaceOnUse" color-interpolation-filters="sRGB">
<feFlood flood-opacity="0" result="BackgroundImageFix"/>
<feBlend mode="normal" in="SourceGraphic" in2="BackgroundImageFix" result="shape"/>
<feGaussianBlur stdDeviation="450" result="effect1_foregroundBlur_7_132"/>
</filter>
<linearGradient id="paint0_linear_7_132" x1="541.285" y1="257.443" x2="541.285" y2="900.771" gradientUnits="userSpaceOnUse">
<stop stop-color="#c6dcfb"/>
<stop offset="1" stop-color="#8ab4f8"/>
</linearGradient>
<linearGradient id="paint1_linear_7_132" x1="541.476" y1="164.531" x2="541.476" y2="1026.64" gradientUnits="userSpaceOnUse">
<stop stop-color="#c6dcfb"/>
<stop offset="1" stop-color="#8ab4f8"/>
</linearGradient>
<linearGradient id="paint2_linear_7_132" x1="540.446" y1="164.695" x2="540.446" y2="1026.49" gradientUnits="userSpaceOnUse">
<stop stop-color="#c6dcfb"/>
<stop offset="1" stop-color="#8ab4f8"/>
</linearGradient>
<clipPath id="clip0_7_132">
<rect width="1080" height="1080" rx="100" fill="white"/>
</clipPath>
</defs>
</svg> 